<?xml version="1.0" standalone="no"?>
<!DOCTYPE svg PUBLIC "-//W3C//DTD SVG 1.1//EN" "http://www.w3.org/Graphics/SVG/1.1/DTD/svg11.dtd" >
<svg xmlns="http://www.w3.org/2000/svg">
<metadata>Generated by IcoMoon</metadata>
<defs>
<font id="sell-icon" horiz-adv-x="1024">
<font-face units-per-em="1024" ascent="960" descent="-64" />
<missing-glyph horiz-adv-x="1024" />
<glyph unicode="&#x20;" horiz-adv-x="512" d="" />
<glyph unicode="&#xe900;" glyph-name="add_circle" d="M726 406v84h-172v172h-84v-172h-172v-84h172v-172h84v172h172zM512 874q176 0 301-125t125-301-125-301-301-125-301 125-125 301 125 301 301 125z" />
<glyph unicode="&#xe901;" glyph-name="arrow_lift" d="M246.784 491.691l443.051 442.709c24.917 24.917 62.464 24.917 87.381 0s24.917-62.464 0-87.381l-399.36-399.36 399.36-399.36c24.917-24.917 24.917-62.464 0-87.381s-62.464-24.917-87.381 0l-443.051 443.392c-24.917 24.917-24.917 62.464 0 87.381z" />
<glyph unicode="&#xe902;" glyph-name="check_circle" d="M426 234l384 384-60 62-324-324-152 152-60-60zM512 874q176 0 301-125t125-301-125-301-301-125-301 125-125 301 125 301 301 125z" />
<glyph unicode="&#xe903;" glyph-name="close" d="M810 686l-238-238 238-238-60-60-238 238-238-238-60 60 238 238-238 238 60 60 238-238 238 238z" />
<glyph unicode="&#xe904;" glyph-name="favorite" d="M512 50l-62 56c-220 200-364 330-364 492 0 132 102 234 234 234 74 0 146-36 192-90 46 54 118 90 192 90 132 0 234-102 234-234 0-162-144-294-364-494z" />
<glyph unicode="&#xe905;" glyph-name="keyboard_arrow_right" d="M366 262l196 196-196 196 60 60 256-256-256-256z" />
<glyph unicode="&#xe906;" glyph-name="remove_circle_outline" d="M512 106q140 0 241 101t101 241-101 241-241 101-241-101-101-241 101-241 241-101zM512 874q176 0 301-125t125-301-125-301-301-125-301 125-125 301 125 301 301 125zM298 490h428v-84h-428v84z" />
<glyph unicode="&#xe907;" glyph-name="shopping_cart" d="M726 192q34 0 59-26t25-60-25-59-59-25-60 25-26 59 26 60 60 26zM42 874h140l40-84h632q18 0 30-13t12-31q0-10-6-20l-152-276q-24-44-74-44h-318l-38-70-2-6q0-10 10-10h494v-86h-512q-34 0-59 26t-25 60q0 20 10 40l58 106-154 324h-86v84zM298 192q34 0 60-26t26-60-26-59-60-25-59 25-25 59 25 60 59 26z" />
<glyph unicode="&#xe908;" glyph-name="thumb_down" d="M810 832h172v-512h-172v512zM640 832q34 0 60-26t26-60v-426q0-34-26-60l-280-282-46 46q-18 18-18 44v14l42 196h-270q-34 0-60 25t-26 59l2 4h-2v82q0 16 6 32l130 300q20 52 78 52h384z" />
<glyph unicode="&#xe909;" glyph-name="thumb_up" d="M982 534l-2-4h2v-82q0-16-6-32l-130-300q-20-52-78-52h-384q-34 0-60 26t-26 60v426q0 34 26 60l280 282 46-46q18-18 18-44v-14l-42-196h270q34 0 60-25t26-59zM42 64v512h172v-512h-172z" />
<glyph unicode="&#xe90a;" glyph-name="home" d="M512 928l-512-512 96-96 96 96v-416h256v192h128v-192h256v416l96-96 96 96-512 512zM512 512c-35.346 0-64 28.654-64 64s28.654 64 64 64c35.346 0 64-28.654 64-64s-28.654-64-64-64z" />
<glyph unicode="&#xe90b;" glyph-name="service" d="M832 197.76v-5.76c0-96.64-83.84-176-192-189.44v29.44c0 17.92-14.080 32-32 32h-128c-17.92 0-32-14.080-32-32v-64c0-17.92 14.080-32 32-32h128c159.36 0 288 114.56 288 256v5.76zM896 197.76c37.12 13.44 64 48.64 64 90.24v128c0 41.6-26.88 76.8-64 90.24v5.76c0 211.84-172.16 384-384 384s-384-172.16-384-384v-5.76c-37.12-13.44-64-48.64-64-90.24v-128c0-53.12 42.88-96 96-96s96 42.88 96 96v128c0 41.6-26.88 76.8-64 90.24v5.76c0 176.64 143.36 320 320 320s320-143.36 320-320v-5.76c-37.12-13.44-64-48.64-64-90.24v-128c0-41.6 26.88-76.8 64-90.24zM192 288c0-17.92-14.080-32-32-32s-32 14.080-32 32v128c0 17.92 14.080 32 32 32s32-14.080 32-32v-128zM896 288c0-17.92-14.080-32-32-32s-32 14.080-32 32v128c0 17.92 14.080 32 32 32s32-14.080 32-32v-128z" />
<glyph unicode="&#xe90c;" glyph-name="rule" d="M329.037 602.055h329.395c15.247 0 27.629 12.382 27.629 27.629s-12.382 27.629-27.63 27.629h-329.393c-15.247 0-27.629-12.382-27.629-27.629s12.28-27.629 27.629-27.629zM329.037 484.378h278.64c15.247 0 27.629 12.381 27.629 27.628s-12.382 27.63-27.629 27.63h-278.64c-15.247 0-27.629-12.383-27.629-27.63s12.28-27.628 27.629-27.628zM658.432 371.714c15.247 0 27.629 12.382 27.629 27.629s-12.382 27.629-27.63 27.629h-329.393c-15.247 0-27.629-12.382-27.629-27.63s12.382-27.628 27.629-27.628h329.395zM811.822 832.601h-610.49c-15.248 0-27.63-12.382-27.63-27.628v-713.127c0-15.247 12.382-27.629 27.63-27.629h423.74c6.652 0 12.997 2.354 18.010 6.754l186.75 160.349c6.037 5.218 9.619 12.893 9.619 20.875v552.778c0 15.246-12.382 27.628-27.629 27.628zM229.983 775.297h553.187v-480.84h-171.4c-15.247 0-27.628-12.382-27.628-27.63v-146.329h-354.159v654.8zM639.399 140.76v97.314h112.868l-112.868-97.314z" />
<glyph unicode="&#xe90d;" glyph-name="gift" d="M935.564 487.564h-814.545c-34.909 0-62.836 27.927-62.836 62.836v93.091c0 34.909 27.927 62.836 62.836 62.836h814.545c34.909 0 62.836-27.927 62.836-62.836v-93.091c0-34.909-27.927-62.836-62.836-62.836zM121.018 662.109c-9.309 0-16.291-6.982-16.291-16.291v-93.091c0-9.309 6.982-16.291 16.291-16.291h814.545c9.309 0 16.291 6.982 16.291 16.291v93.091c0 9.309-6.982 16.291-16.291 16.291h-814.545zM742.4-10.473h-439.855c-100.073 0-181.527 81.455-181.527 181.527v339.782h46.545v-339.782c0-74.473 60.509-134.982 134.982-134.982h439.855c74.473 0 134.982 60.509 134.982 134.982v339.782h46.545v-339.782c0-100.073-81.455-181.527-181.527-181.527zM551.564 64h-46.545v642.327c2.327 4.655 37.236 132.655 128 181.527 41.891 20.945 86.109 23.273 134.982 9.309 2.327 0 48.873-16.291 62.836-65.164 13.964-44.218-4.655-97.745-51.2-160.582l-37.236 27.927c37.236 48.873 53.527 90.764 44.218 118.691-6.982 25.6-32.582 34.909-32.582 34.909-34.909 11.636-67.491 9.309-97.745-4.655-67.491-34.909-97.745-132.655-104.727-148.945v-635.345zM549.236 12.8h-46.545v684.218c-4.655 18.618-37.236 114.036-104.727 148.945-30.255 16.291-60.509 16.291-97.745 4.655 0 0-25.6-9.309-32.582-34.909-9.309-27.927 6.982-69.818 44.218-118.691l-37.236-27.927c-46.545 62.836-65.164 116.364-51.2 160.582 13.964 48.873 60.509 65.164 62.836 65.164 48.873 16.291 93.091 13.964 134.982-9.309 90.764-48.873 125.673-176.873 128-181.527v-691.2z" />
<glyph unicode="&#xe90e;" glyph-name="wish" d="M862.276 390.639l-358.4-307.2c-5.411-4.719-8.811-11.626-8.811-19.326 0-14.138 11.462-25.6 25.6-25.6 6.316 0 12.098 2.287 16.562 6.079l-0.037-0.030 358.4 307.2c5.411 4.719 8.811 11.626 8.811 19.326 0 14.138-11.462 25.6-25.6 25.6-6.316 0-12.098-2.287-16.562-6.079l0.037 0.030zM145.476 351.761l358.4-307.2c4.428-3.761 10.209-6.048 16.526-6.048 14.138 0 25.6 11.462 25.6 25.6 0 7.701-3.4 14.607-8.781 19.3l-0.030 0.026-358.4 307.2c-4.428 3.761-10.209 6.048-16.526 6.048-14.138 0-25.6-11.462-25.6-25.6 0-7.701 3.4-14.607 8.781-19.3l0.030-0.026zM492.663 262.315c-48.418 40.054-86.241 72.29-123.674 104.962l7.45-6.367c-62.396 54.477-105.745 95.761-120.354 115.61-25.088 34.116-27.87 38.007-35.413 50.278-19.831 32.307-27.648 62.123-27.648 115.166 0 99.055 80.316 179.371 179.388 179.371 37.615 0 86.477-30.43 134.997-77.022 4.593-4.415 10.844-7.134 17.73-7.134 0.001 0 0.001 0 0.002 0h4.113c7.073 0.002 13.475 2.871 18.107 7.509v0c48.964 48.947 91.921 76.646 130.509 76.646 99.072 0 179.371-80.316 179.371-179.371 0-64.819-11.503-97.877-42.598-142.268-3.584-5.12-17.374-24.286-16.777-23.467-11.435-15.974-59.255-59.494-129.485-118.63-35.058-29.85-82.576-69.034-130.548-107.68l-15.475-12.060c-21.815 17.674-31.479 25.677-41.121 33.705l11.425-9.248zM372.412 872.533c-127.334 0-230.571-103.236-230.571-230.571 0-62.174 10.223-101.274 35.209-141.961 8.636-14.063 11.537-18.125 37.803-53.828 17.749-24.115 62.259-66.509 127.915-123.836 5.205-4.557 10.53-9.165 15.94-13.858 38.501-33.464 86.461-73.835 134.963-113.568l12.408-9.858c4.362-3.558 9.99-5.714 16.121-5.714 6.045 0 11.601 2.095 15.981 5.599l-0.051-0.039 12.971 10.359c62.402 49.876 107.182 86.706 151.598 123.957l-13.989-11.419 12.663 10.633c74.923 63.095 123.017 106.871 138.155 128.034-0.768-1.058 13.261 18.432 17.067 23.859 36.83 52.599 51.849 95.744 51.849 171.639 0 127.334-103.236 230.571-230.571 230.571-51.388 0-99.157-27.785-151.006-76.425-52.224 46.763-104.516 76.425-154.453 76.425zM511.164 780.885l18.091-18.091v25.6h-4.113v-25.6l17.732 18.449c-5.342 5.12-10.667 10.086-16.009 14.865-5.188-4.864-10.428-9.95-15.701-15.223z" />
<glyph unicode="&#xe90f;" glyph-name="redpocket" d="M580.716 376.339c12.678 0 22.932 10.261 22.932 22.94s-10.254 22.936-22.932 22.936h-13.942l16.45 27.517c6.493 10.876 2.955 24.957-7.907 31.476-10.88 6.474-24.946 2.941-31.472-7.907l-30.546-51.086h-3.073l-30.538 51.086c-6.522 10.848-20.588 14.381-31.464 7.907-10.877-6.508-14.422-20.596-7.918-31.476l16.45-27.518h-13.967c-12.668 0-22.94-10.257-22.94-22.936s10.268-22.94 22.94-22.94h46.014v-28.674h-46.014c-12.668 0-22.94-10.257-22.94-22.936s10.268-22.94 22.94-22.94h46.014v-99.412c0-12.668 10.268-22.94 22.936-22.94 12.67 0 22.939 10.272 22.939 22.94v99.412h46.036c12.678 0 22.932 10.26 22.932 22.94 0 12.678-10.254 22.936-22.932 22.936h-46.036v28.674h46.037zM725.472 831.437h-427.46c-48.984 0-88.824-39.851-88.824-88.847v-590.313c0-48.963 39.84-88.839 88.824-88.839h427.46c48.966 0 88.824 39.877 88.824 88.839v590.313c0 48.996-39.858 88.847-88.824 88.847zM298.012 785.562h427.46c23.676 0 42.942-19.277 42.942-42.968v-14.948c-0.48-0.901-0.997-1.777-1.37-2.754-29.879-79.285-134.963-134.652-255.571-134.652-119.748 0-224.652 54.877-255.121 133.421-0.348 0.905-0.839 1.702-1.289 2.538v16.392c0.007 23.694 19.273 42.971 42.949 42.971zM725.472 109.321h-427.46c-23.676 0-42.942 19.263-42.942 42.956v490.378c56.441-60.048 151.912-98.299 256.403-98.299 105.033 0 200.625 38.438 256.941 98.826v-490.905c0-23.693-19.267-42.956-42.942-42.956z" />
<glyph unicode="&#xe910;" glyph-name="gold" d="M554.539 474.709c-19.115 8.021-89.429 19.157-89.429 49.877 0 22.699 26.283 29.227 42.069 29.227 14.379 0 31.573-4.523 40.704-13.611 5.717-5.547 8.107-9.557 10.027-15.061 2.389-6.613 3.84-13.653 12.885-13.653h46.933c10.965 0 13.867 2.005 13.867 14.080 0 51.925-40.704 81.195-87.083 91.264v40.32c0 9.045-2.859 14.592-13.909 14.592h-37.291c-11.008 0-13.867-5.547-13.867-14.592v-38.827c-49.749-9.557-91.392-40.832-91.392-97.28 0-64 44.501-84.139 92.843-100.267 40.661-13.611 83.2-14.080 83.2-42.325 0-28.203-21.035-34.261-46.848-34.261-17.707 0-37.291 4.565-46.933 16.64-4.983 5.516-8.282 12.639-9.034 20.506l-0.011 0.145c-0.939 12.587-6.229 14.080-17.237 14.080h-46.379c-11.051 0-13.909-2.517-13.909-14.080 0-57.472 45.952-92.245 95.701-103.339v-39.296c0-9.045 2.859-14.635 13.867-14.635h37.291c11.051 0 13.909 5.547 13.909 14.635v38.315c56.448 8.533 95.189 42.795 95.189 103.339 0 68.48-50.688 83.115-85.163 94.208zM512 0c-247.424 0-448 200.576-448 448s200.576 448 448 448 448-200.576 448-448-200.576-448-448-448zM512 960c-282.795 0-512-229.248-512-512 0-282.795 229.205-512 512-512 282.752 0 512 229.205 512 512 0 282.752-229.248 512-512 512z" />
<glyph unicode="&#xe911;" glyph-name="right" d="M642 448l-345.85-346.37c-6.892-6.905-11.154-16.437-11.154-26.965s4.262-20.060 11.155-26.966l2.519-2.519c6.89-6.909 16.418-11.184 26.945-11.184s20.055 4.275 26.944 11.183l0.001 0.001 371.12 371.75q0.84 0.75 1.65 1.56l2.52 2.52c6.89 6.906 11.151 16.438 11.151 26.966 0 9.172-3.234 17.589-8.625 24.172l0.054-0.068c-0.861 1.063-1.721 2.015-2.629 2.919l-0.001 0.001-2.51 2.52-0.19 0.18-372.5 373.12c-6.89 6.909-16.418 11.184-26.945 11.184s-20.055-4.275-26.944-11.183l-2.511-2.521c-6.892-6.905-11.154-16.437-11.154-26.965s4.262-20.060 11.155-26.966l-0.001 0.001z" />
<glyph unicode="&#xe912;" glyph-name="qq" d="M953.6 390.4c-19.2 51.2-44.8 96-70.4 121.6v12.8c0 32-6.4 57.6-25.6 83.2 0 192-153.6 352-345.6 352s-345.6-160-345.6-352c-19.2-25.6-25.6-57.6-25.6-83.2v-12.8c-25.6-25.6-51.2-70.4-70.4-121.6-32-102.4-25.6-217.6 38.4-243.2 25.6-6.4 44.8 0 70.4 12.8-38.4-25.6-57.6-57.6-57.6-89.6 0-76.8 89.6-128 211.2-128 64 0 121.6 19.2 160 44.8h38.4c38.4-25.6 96-44.8 160-44.8 121.6 0 211.2 51.2 211.2 128 0 38.4-19.2 70.4-57.6 89.6 19.2-19.2 44.8-19.2 70.4-12.8 64 25.6 70.4 140.8 38.4 243.2zM896 192c-12.8-6.4-32 12.8-38.4 19.2s-12.8 12.8-19.2 6.4c-6.4 0-12.8-6.4-19.2-12.8-6.4-19.2-19.2-32-32-51.2-6.4-6.4-6.4-12.8-6.4-19.2s6.4-12.8 12.8-19.2c38.4-12.8 57.6-38.4 57.6-57.6 0-44.8-70.4-76.8-160-76.8-57.6 0-108.8 12.8-134.4 38.4-6.4 6.4-12.8 6.4-19.2 6.4h-51.2c-6.4 0-12.8 0-19.2-6.4-25.6-25.6-83.2-38.4-134.4-38.4-89.6 0-160 32-160 76.8 0 25.6 19.2 44.8 57.6 57.6 6.4 0 12.8 6.4 12.8 19.2 0 6.4 0 12.8-6.4 19.2-12.8 12.8-25.6 32-32 51.2-6.4 6.4-12.8 12.8-19.2 12.8s-19.2 0-19.2-6.4c-6.4-6.4-25.6-19.2-38.4-19.2-25.6 6.4-38.4 89.6-6.4 179.2 12.8 51.2 44.8 89.6 70.4 108.8 0 12.8 6.4 19.2 0 25.6v19.2c0 19.2 6.4 44.8 19.2 64 0 6.4 6.4 12.8 6.4 12.8v6.4c0 166.4 134.4 300.8 294.4 300.8s294.4-134.4 294.4-300.8v-6.4c0-6.4 0-12.8 6.4-12.8 12.8-19.2 19.2-44.8 19.2-64v-19.2c0-6.4 0-19.2 6.4-19.2 25.6-25.6 51.2-64 70.4-108.8 25.6-89.6 12.8-172.8-12.8-185.6z" />
<glyph unicode="&#xe913;" glyph-name="taobao" d="M489.244 607.289l30.492-27.921-15.246-16.521h196.972l0.637-45.739-122.607-0.614v-59.096l121.333-1.911v-29.855h-120.718l-0.614-106.724c40.641-1.274 53.976 15.883 53.976 15.883l-13.972 27.967 73.045 42.553 38.753-86.38v259.868c-46.353 119.467-242.119 28.604-242.119 28.604l0.046-0.091zM511.454 960c-282.442 0-511.454-229.035-511.454-511.522 0-282.465 229.012-511.477 511.477-511.477 282.51 0 511.522 229.012 511.522 511.477 0 282.487-229.012 511.522-511.522 511.522zM256.068 717.312c33.694 0 61.008-27.314 61.008-61.008s-27.314-61.008-61.008-61.008v0c-33.694 0-61.008 27.314-61.008 61.008s27.314 61.008 61.008 61.008v0zM318.327 376.73l-88.974-183-95.3 60.985 125.815 137.262c17.749 22.892 0 50.813 0 50.813l-92.774 80.077 40.687 55.933s44.487-34.315 93.412-82.603c48.902-48.287 17.135-119.467 17.135-119.467zM843.184 285.252s-7.623-108.043-113.095-105.495c-105.426 2.549-105.495 0-105.495 0l-30.515-0.023s-17.749 24.804 0.66 61.668c0 0 38.73 6.372 45.079-15.269h44.487s43.19 8.26 46.353 76.231l-60.985-45.739-22.232 45.124s-80.714-64.785-146.773-60.37h-89.611s-58.459 15.246-61.622 92.16v59.733h91.523s-9.557-94.071 44.464-89.611l1.252 120.741h-137.239v30.515h137.239l-0.614 60.37-19.706 0.637-55.933-55.296-36.864 33.041 69.268 68.608-1.911 31.152-87.063-80.054-52.725 52.725s69.86 45.124 92.774 151.233l78.12-19.706-12.675-41.301s340.56 124.541 383.75-92.729v-278.3l0.068-0.046z" />
<glyph unicode="&#xe914;" glyph-name="weibo" d="M448.96 281.952c-94.368-4.432-170.656 42.912-170.656 105.872 0 63.040 76.288 113.6 170.672 117.968 94.416 4.352 170.88-34.56 170.88-97.488 0-62.976-76.464-122.080-170.88-126.352zM649.92 486.544c-22.432 4.352-11.52 16.416-11.52 16.416s21.92 36.16-4.352 62.432c-32.56 32.56-111.68-4.16-111.68-4.16-30.224-9.36-22.224 4.304-17.952 27.536 0 27.376-9.376 73.744-89.888 46.352-80.4-27.52-149.456-123.968-149.456-123.968-48.032-64.064-41.664-113.584-41.664-113.584 11.984-109.344 128.16-139.36 218.512-146.464 95.072-7.456 223.36 32.768 262.288 115.408 38.896 82.784-31.808 115.536-54.288 120.032zM462.16 387.136c-6.016-4.48-13.408-3.872-16.56 1.52-3.328 5.248-2.080 13.648 4 18.080 7.024 5.232 14.336 3.728 17.504-1.52 3.168-5.376 0.912-13.44-4.944-18.080zM406.192 339.488c-17.728-2.080-32 8.128-32 22.96 0 14.752 12.688 30.224 30.432 32.064 20.336 1.936 33.6-9.792 33.6-24.624 0-14.752-14.384-28.4-32.032-30.4zM430.144 464.256c-94.912-11.104-83.952-100-83.952-100s-0.96-28.16 25.44-42.512c55.552-30.080 112.72-11.872 141.632 25.44 28.896 37.328 11.936 128.112-83.12 117.072zM696.128 525.024c0.001 0 0.001 0 0.002 0 8.272 0 15.026 6.498 15.436 14.667l0.001 0.037c11.6 104.224-85.392 86.288-85.392 86.288s0 0-0.001 0c-8.571 0-15.52-6.949-15.52-15.52 0-0.051 0-0.101 0.001-0.152v0.008c0-8.544 6.896-15.52 15.52-15.52 69.68 15.392 54.288-54.272 54.288-54.272 0-8.624 7.040-15.52 15.68-15.52zM684.832 706.96c-33.536 7.856-68.032 1.072-77.712-0.768-0.736-0.080-1.44-0.768-2.112-0.912-0.336-0.064-0.544-0.416-0.544-0.416-9.536-2.688-16.48-11.52-16.48-21.92 0-12.432 10.048-22.64 22.608-22.64 0 0 12.208 1.632 20.48 4.88 8.208 3.296 77.68 2.464 112.16-55.488 18.832-42.272 8.288-70.576 6.976-75.136 0 0-4.48-10.976-4.48-21.792 0-12.48 10.080-20.336 22.56-20.336 10.4 0 19.168 1.44 21.728 19.056h0.128c37.040 123.456-45.312 181.456-105.312 195.472zM511.504 912c-255.984 0-463.504-207.52-463.504-463.456 0-256.032 207.52-463.52 463.504-463.52s463.52 207.488 463.52 463.52c-0.016 255.936-207.552 463.456-463.536 463.456zM510.784 887.168c241.504 0 437.968-196.432 437.968-437.92 0-241.552-196.48-438-437.968-438-241.536 0-438.016 196.448-438.016 438 0 241.488 196.48 437.92 438.016 437.92z" />
<glyph unicode="&#xe915;" glyph-name="weixin" d="M512 908.8c-254.496 0-460.8-206.304-460.8-460.8s206.304-460.8 460.8-460.8 460.8 206.304 460.8 460.8-206.304 460.8-460.8 460.8zM512 12.8c-239.968 0-435.2 195.232-435.2 435.2s195.232 435.2 435.2 435.2 435.2-195.232 435.2-435.2-195.232-435.2-435.2-435.2zM612.112 538.976c6.48 0 12.912-0.48 19.28-1.184-17.328 80.672-103.568 140.608-202.016 140.608-110.048 0-200.224-75.024-200.224-170.272 0-54.992 30-100.16 80.128-135.168l-20.032-60.24 70 35.088c25.040-4.96 45.12-10.048 70.128-10.048 6.288 0 12.512 0.304 18.688 0.8-3.871 12.548-6.124 26.977-6.176 41.925v0.027c0 87.488 75.12 158.464 170.224 158.464zM504.448 593.264c15.072 0 25.056-9.92 25.056-24.976 0-15.008-9.984-25.072-25.056-25.072-15.008 0-30.080 10.064-30.080 25.072 0.032 15.056 15.072 24.976 30.080 24.976zM364.32 543.216c-14.992 0-30.144 10.064-30.144 25.072 0 15.056 15.152 24.976 30.144 24.976 15.008 0 25.008-9.92 25.008-24.976 0-15.024-9.984-25.072-25.008-25.072zM624.784 528.224c-95.264 0-170.288-65.264-170.288-145.296 0-80.192 75.040-145.296 170.288-145.296 19.936 0 40.048 5.024 60.064 10.048l54.912-30.080-15.040 50.032c40.176 30.16 70.128 70.128 70.128 115.296 0 80.048-80.112 145.28-170.080 145.28zM569.568 407.968c-9.984 0-20.032 9.92-20.032 20.032 0 9.984 10.048 20.032 20.032 20.032 15.136 0 25.056-10.048 25.056-20.032 0-10.112-9.92-20.032-25.056-20.032zM679.696 407.968c-9.904 0-19.888 9.92-19.888 20.032 0 9.984 9.984 20.032 19.888 20.032 14.992 0 25.056-10.048 25.056-20.032 0-10.112-10.064-20.032-25.056-20.032z" />
<glyph unicode="&#xe916;" glyph-name="zhifubao" d="M511.997-62.91c-69.032 0-136.015 13.527-199.087 40.204-60.903 25.765-115.601 62.637-162.565 109.601-46.962 46.958-83.836 101.656-109.599 162.565-26.679 63.067-40.2 130.049-40.2 199.088 0 69.033 13.522 136.016 40.2 199.087 25.763 60.904 62.636 115.602 109.599 162.566 46.964 46.962 101.661 83.836 162.565 109.599 63.072 26.678 130.055 40.2 199.087 40.2 69.034 0 136.023-13.522 199.088-40.2 60.909-25.762 115.601-62.642 162.564-109.599 46.965-46.964 83.837-101.661 109.601-162.566 26.677-63.071 40.204-130.054 40.204-199.093 0-69.033-13.527-136.016-40.204-199.087-25.764-60.909-62.636-115.602-109.601-162.56-46.964-46.964-101.655-83.842-162.559-109.601-63.076-26.675-130.059-40.204-199.093-40.204v0zM511.997 924.97c-64.32 0-126.711-12.597-185.442-37.436-56.73-23.997-107.678-58.346-151.437-102.106-43.761-43.753-78.11-94.707-102.107-151.438-24.838-58.73-37.436-121.122-37.436-185.442s12.598-126.717 37.436-185.441c23.997-56.73 58.352-107.684 102.107-151.438 43.759-43.759 94.707-78.114 151.437-102.106 58.731-24.845 121.124-37.437 185.442-37.437 64.326 0 126.718 12.592 185.442 37.437 56.73 23.996 107.684 58.348 151.438 102.106 43.761 43.755 78.114 94.703 102.106 151.438 24.845 58.726 37.437 121.116 37.437 185.441s-12.592 126.718-37.437 185.442c-23.996 56.73-58.346 107.684-102.106 151.438-43.755 43.761-94.708 78.115-151.438 102.106-58.725 24.839-121.116 37.436-185.442 37.436v0zM607.874 395.052c53.033 96.426 72.318 188.025 72.318 188.025h-178.382v67.5h212.132v28.924h-212.132v101.245h-96.423v-101.245h-192.846v-28.924h192.846v-67.5h-163.92v-28.926h332.662c0-4.821-28.926-91.603-48.212-130.169-245.879 96.423-318.198 38.566-337.482 28.926-163.918-115.707-9.642-260.343 14.465-255.521 173.563-38.568 284.446 33.749 361.586 125.353 4.819-4.823 9.642-4.823 14.464-4.823 53.032-28.924 308.552-149.453 308.552-149.453v144.63c-38.57-0.001-178.384 48.211-279.628 81.958v0zM482.524 351.663c-120.528-154.277-265.161-106.065-289.269-96.422-57.852 14.463-77.137 120.529-4.822 154.277 120.528 38.565 226.595-4.822 303.735-43.393-4.822-9.64-9.644-14.462-9.644-14.462v0z" />
<glyph unicode="&#xe917;" glyph-name="hiddenpass" d="M275.2 668.8c-76.8-44.8-137.6-112-176-192 73.6-153.6 233.6-256 412.8-256 60.8 0 121.6 12.8 176 35.2l-64 64c-32-22.4-70.4-35.2-112-35.2-105.6 0-192 86.4-192 192 0 41.6 12.8 80 35.2 112l-80 80zM230.4 716.8l-48 44.8c-12.8 12.8-12.8 32 0 44.8s32 12.8 44.8 0l611.2-611.2c12.8-12.8 12.8-32 0-44.8s-32-12.8-44.8 0l-57.6 57.6c-70.4-32-147.2-48-224-48-211.2 0-396.8 121.6-476.8 307.2-3.2 3.2-3.2 6.4-3.2 12.8 0 3.2 0 9.6 3.2 12.8 38.4 89.6 108.8 169.6 195.2 224zM403.2 544c-12.8-19.2-19.2-41.6-19.2-64 0-70.4 57.6-128 128-128 22.4 0 44.8 6.4 64 19.2l-172.8 172.8zM992 480c0-6.4 0-12.8-3.2-19.2-28.8-60.8-67.2-118.4-118.4-163.2-12.8-12.8-32-9.6-44.8 3.2s-9.6 32 3.2 44.8c41.6 38.4 73.6 83.2 99.2 134.4-73.6 153.6-233.6 256-412.8 256-32 0-60.8-3.2-92.8-9.6-16-3.2-35.2 6.4-38.4 25.6s6.4 35.2 25.6 38.4c32 6.4 67.2 9.6 102.4 9.6 208 0 393.6-121.6 476.8-300.8 3.2-9.6 3.2-16 3.2-19.2z" />
<glyph unicode="&#xe922;" glyph-name="orderfile" d="M864 960h-768c-52.8 0-96-43.2-96-96v-832c0-52.8 43.2-96 96-96h768c52.8 0 96 43.2 96 96v832c0 52.8-43.2 96-96 96zM832 64h-704v768h704v-768zM256 512h448v-64h-448zM256 384h448v-64h-448zM256 256h448v-64h-448zM256 640h448v-64h-448z" />
<glyph unicode="&#xe93e;" glyph-name="coin-yen" d="M480 896c-265.096 0-480-214.904-480-480s214.904-480 480-480c265.098 0 480 214.902 480 480s-214.902 480-480 480zM480 32c-212.078 0-384 171.922-384 384s171.922 384 384 384c212.076 0 384-171.922 384-384s-171.924-384-384-384zM608 384c17.674 0 32 14.326 32 32s-14.326 32-32 32h-68.208l94.832 142.25c9.804 14.704 5.83 34.572-8.876 44.376-14.704 9.802-34.572 5.83-44.376-8.876l-101.372-152.062-101.374 152.062c-9.804 14.706-29.672 18.68-44.376 8.876-14.706-9.804-18.678-29.672-8.876-44.376l94.834-142.25h-68.208c-17.672 0-32-14.326-32-32s14.328-32 32-32h96v-64h-96c-17.672 0-32-14.326-32-32s14.328-32 32-32h96v-96c0-17.674 14.328-32 32-32s32 14.326 32 32v96h96c17.674 0 32 14.326 32 32s-14.326 32-32 32h-96v64h96z" />
<glyph unicode="&#xe948;" glyph-name="location2" d="M512 960c-176.732 0-320-143.268-320-320 0-320 320-704 320-704s320 384 320 704c0 176.732-143.27 320-320 320zM512 444c-108.248 0-196 87.752-196 196s87.752 196 196 196 196-87.752 196-196-87.752-196-196-196zM388 640c0 68.483 55.517 124 124 124s124-55.517 124-124c0-68.483-55.517-124-124-124s-124 55.517-124 124z" />
<glyph unicode="&#xe958;" glyph-name="mobile" d="M736 960h-448c-52.8 0-96-43.2-96-96v-832c0-52.8 43.2-96 96-96h448c52.8 0 96 43.2 96 96v832c0 52.8-43.2 96-96 96zM384 912h256v-32h-256v32zM512 0c-35.346 0-64 28.654-64 64s28.654 64 64 64 64-28.654 64-64-28.654-64-64-64zM768 192h-512v640h512v-640z" />
<glyph unicode="&#xe971;" glyph-name="user" d="M576 253.388v52.78c70.498 39.728 128 138.772 128 237.832 0 159.058 0 288-192 288s-192-128.942-192-288c0-99.060 57.502-198.104 128-237.832v-52.78c-217.102-17.748-384-124.42-384-253.388h896c0 128.968-166.898 235.64-384 253.388z" />
<glyph unicode="&#xe986;" glyph-name="search" d="M992.262 88.604l-242.552 206.294c-25.074 22.566-51.89 32.926-73.552 31.926 57.256 67.068 91.842 154.078 91.842 249.176 0 212.078-171.922 384-384 384-212.076 0-384-171.922-384-384s171.922-384 384-384c95.098 0 182.108 34.586 249.176 91.844-1-21.662 9.36-48.478 31.926-73.552l206.294-242.552c35.322-39.246 93.022-42.554 128.22-7.356s31.892 92.898-7.354 128.22zM384 320c-141.384 0-256 114.616-256 256s114.616 256 256 256 256-114.616 256-256-114.614-256-256-256z" />
</font>
</defs>
</svg>
